#!OML:ASF H:\Terrain\Patient Classification 1\Walking\steve\steve.ASF
:FULLY-SPECIFIED
:DEGREES
138
root 7.68134 16.3161 0.60416 5.26586 -2.27296 -2.70174
lowerback 1.35507 2.49613 4.33693
upperback -2.88222 3.52582 1.61785
thorax -3.57447 1.65877 -0.9077
lowerneck -7.51447 -1.79721 -2.67392
upperneck 14.8324 -2.44693 2.38818
head 5.77799 -1.16342 1.0158
rclavicle 1.16879e-014 8.74653e-015
rhumerus -33.7524 -9.76245 -82.3167
rradius 38.7977
rwrist 4.64917
rhand 175.947 -68.4018
rfingers 7.12502
rthumb -158.297 -39.5984
lclavicle 1.16879e-014 8.74653e-015
lhumerus -36.7398 1.43796 88.8109
lradius 20.4381
lwrist 5.08552
lhand -26.1205 -16.7809
lfingers 7.12502
lthumb 0.429349 13.1985
rfemur -16.4404 0.730412 28.8318
rtibia 34.414
rfoot -17.8094 14.8778
rtoes 6.26568
lfemur -31.6381 7.04972 -18.5684
ltibia 60.9349
lfoot -11.5707 4.41534
ltoes -14.3758
139
root 7.69099 16.3185 0.84345 5.27581 -2.55556 -2.74593
lowerback 1.21727 2.56694 4.49235
upperback -2.85969 3.61402 1.5771
thorax -3.45765 1.70043 -1.03115
lowerneck -7.24504 -1.81364 -3.06565
upperneck 14.7391 -2.46942 2.69695
head 5.71157 -1.17595 1.17805
rclavicle -2.29037e-014 1.19271e-014
rhumerus -32.6074 -8.16235 -83.0139
rradius 40.7186
rwrist 2.93422
rhand 175.676 -68.0907
rfingers 7.12502
rthumb -158.557 -39.2574
lclavicle -2.29037e-014 1.19271e-014
lhumerus -37.8357 3.60293 87.6047
lradius 18.4726
lwrist 1.5606
lhand -26.0189 -16.8149
lfingers 7.12502
lthumb 0.527531 13.1642
rfemur -15.2657 0.152897 28.7851
rtibia 33.9266
rfoot -17.8626 15.9538
rtoes 7.57433
lfemur -32.5325 6.85775 -18.6474
ltibia 58.7738
lfoot -12.3024 4.67466
ltoes -12.4891
140
root 7.69877 16.3398 1.08699 5.32186 -3.01415 -2.589
lowerback 1.21803 2.64036 4.31412
upperback -2.94521 3.70768 1.49569
thorax -3.54733 1.74799 -1.02182
lowerneck -7.20642 -1.73701 -3.35688
upperneck 14.8894 -2.38542 3.05156
head 5.75673 -1.12597 1.34415
rclavicle -3.50824e-014 -1.82882e-014
rhumerus -31.4736 -6.92667 -83.6251
rradius 42.3134
rwrist 1.77026
rhand 175.776 -68.0422
rfingers 7.12502
rthumb -158.461 -39.2198
lclavicle -3.50824e-014 -1.82882e-014
lhumerus -39.3895 5.797 86.0936
lradius 16.7966
lwrist -2.29314
lhand -27.1627 -18.7217
lfingers 7.12502
lthumb -0.577238 11.2572
rfemur -14.0336 -0.455514 28.4532
rtibia 33.2585
rfoot -17.4443 17.1545
rtoes 9.79998
lfemur -33.2326 6.72023 -18.9391
ltibia 56.3504
lfoot -13.2892 5.12586
ltoes -12.339
141
root 7.7055 16.3589 1.32523 5.48874 -3.52531 -2.71155
lowerback 1.28624 2.75604 4.39444
upperback -3.06644 3.87201 1.44551
thorax -3.69593 1.82202 -1.13079
lowerneck -7.47972 -1.63988 -3.15398
upperneck 15.0491 -2.27123 3.01959
head 5.84724 -1.05895 1.30719
rclavicle -1.21538e-014 -1.15295e-014
rhumerus -30.559 -5.53975 -84.1221
rradius 44.1679
rwrist 0.226888
rhand 175.924 -68.3417
rfingers 7.12502
rthumb -158.319 -39.5357
lclavicle -1.21538e-014 -1.15295e-014
lhumerus -41.1021 8.51907 83.9164
lradius 15.3061
lwrist -6.32331
lhand -27.3309 -20.6829
lfingers 7.12502
lthumb -0.739683 9.2956
rfemur -12.8735 -0.805999 28.4493
rtibia 32.4519
rfoot -16.7898 18.0086
rtoes 11.8061
lfemur -34.1067 6.68303 -18.8431
ltibia 53.7179
lfoot -14.1831 5.62304
ltoes -13.4806
142
root 7.70633 16.3739 1.55966 5.64654 -3.98487 -2.99401
lowerback 1.18486 2.92901 4.72167
upperback -2.9818 4.09965 1.35251
thorax -3.51131 1.92965 -1.40635
lowerneck -7.8861 -1.67285 -2.69761
upperneck 15.0304 -2.31349 2.6672
head 5.90384 -1.07658 1.11462
rclavicle -2.127e-014 -2.78299e-014
rhumerus -29.5864 -4.01899 -84.6155
rradius 46.462
rwrist -1.55098
rhand 175.719 -68.6739
rfingers 7.12502
rthumb -158.515 -39.8453
lclavicle -2.127e-014 -2.78299e-014
lhumerus -42.4623 11.4074 81.197
lradius 13.9015
lwrist -10.7963
lhand -25.4915 -19.9109
lfingers 7.12502
lthumb 1.03686 10.0663
rfemur -11.7032 -1.00402 28.6786
rtibia 31.6299
rfoot -16.4175 18.3961
rtoes 11.8553
lfemur -34.9291 6.54121 -18.471
ltibia 50.836
lfoot -14.7856 5.85732
ltoes -15.4771
143
root 7.708 16.3833 1.79716 5.78248 -4.34669 -3.01663
lowerback 1.0286 3.02253 4.74232
upperback -2.92568 4.20957 1.25915
thorax -3.35 1.98717 -1.5057
lowerneck -8.00313 -1.68157 -2.2379
upperneck 14.8628 -2.31083 2.1953
head 5.86075 -1.08419 0.889382
rclavicle 2.5682e-014 2.54444e-014
rhumerus -28.4396 -2.6018 -85.1032
rradius 48.5335
rwrist -2.82023
rhand 175.788 -68.6977
rfingers 7.12502
rthumb -158.45 -39.8767
lclavicle 2.5682e-014 2.54444e-014
lhumerus -43.9488 14.2798 78.234
lradius 12.6205
lwrist -15.5252
lhand -23.9587 -18.2472
lfingers 7.12502
lthumb 2.5172 11.7177
rfemur -10.556 -1.33669 28.5693
rtibia 30.8314
rfoot -16.0197 19.0379
rtoes 12.2623
lfemur -35.4686 6.36641 -18.4537
ltibia 47.7734
lfoot -15.2926 6.38207
ltoes -18.7209
144
root 7.72024 16.3807 2.03863 5.93469 -4.76793 -2.90974
lowerback 0.870716 3.09521 4.67164
upperback -2.96224 4.2941 1.19539
thorax -3.29378 2.03129 -1.52606
lowerneck -7.72134 -1.57328 -2.16295
upperneck 14.5113 -2.16833 2.16351
head 5.69751 -1.01596 0.879958
rclavicle -1.74402e-015 4.77083e-015
rhumerus -27.2708 -1.59473 -85.3076
rradius 49.579
rwrist -4.0381
rhand 175.356 -69.387
rfingers 7.12502
rthumb -158.864 -40.5191
lclavicle -1.74402e-015 4.77083e-015
lhumerus -46.0126 17.2596 74.9533
lradius 11.6462
lwrist -20.4419
lhand -22.9883 -16.9811
lfingers 7.12502
lthumb 3.45436 12.9706
rfemur -9.41153 -1.83043 28.2077
rtibia 29.9943
rfoot -15.6051 19.9767
rtoes 12.8153
lfemur -35.8402 6.32008 -18.6512
ltibia 44.5955
lfoot -15.9814 7.08605
ltoes -19.6597
145
root 7.73602 16.3576 2.27404 6.06193 -5.2746 -3.24663
lowerback 0.877622 3.21362 5.10467
upperback -3.017 4.46684 1.22897
thorax -3.31684 2.10433 -1.73707
lowerneck -7.50404 -1.48162 -2.42056
upperneck 14.3274 -2.05626 2.47097
head 5.60574 -0.955356 1.02849
rclavicle 4.75724e-014 1.51076e-014
rhumerus -26.2759 -0.657622 -85.3621
rradius 51.1629
rwrist -3.86662
rhand 176.189 -69.6316
rfingers 7.12502
rthumb -158.064 -40.8553
lclavicle 4.75724e-014 1.51076e-014
lhumerus -48.4657 19.7951 71.6174
lradius 11.0125
lwrist -24.6767
lhand -22.0691 -16.0076
lfingers 7.12502
lthumb 4.34209 13.9279
rfemur -8.1529 -2.16035 28.3208
rtibia 29.05
rfoot -15.3722 20.7981
rtoes 12.6385
lfemur -36.225 6.36502 -18.2606
ltibia 41.3544
lfoot -16.8052 7.04597
ltoes -16.7592
146
root 7.75132 16.341 2.50955 6.12628 -5.74137 -3.75543
lowerback 1.04605 3.31835 5.70143
upperback -3.06291 4.63821 1.27929
thorax -3.40966 2.16994 -2.03083
lowerneck -7.51704 -1.46061 -2.51655
upperneck 14.338 -2.04387 2.66346
head 5.61375 -0.940847 1.1055
rclavicle -1.79621e-014 1.70955e-014
rhumerus -25.4637 0.414309 -85.4082
rradius 53.1956
rwrist -3.865
rhand 176.619 -70.4192
rfingers 7.12502
rthumb -157.652 -41.6918
lclavicle -1.79621e-014 1.70955e-014
lhumerus -51.087 22.0758 67.9553
lradius 10.3705
lwrist -28.4417
lhand -21.5839 -15.884
lfingers 7.12502
lthumb 4.81057 14.0414
rfemur -6.7049 -2.50242 28.5874
rtibia 27.9533
rfoot -14.8715 21.7232
rtoes 12.8561
lfemur -36.5204 6.23596 -17.5323
ltibia 38.0481
lfoot -17.28 6.88514
ltoes -15.2034
147
root 7.76297 16.353 2.75369 6.25477 -6.23728 -4.0183
lowerback 1.04219 3.42321 5.97757
upperback -3.05105 4.78417 1.26302
thorax -3.36238 2.23605 -2.20211
lowerneck -7.66909 -1.38129 -2.30771
upperneck 14.2298 -1.96189 2.68134
head 5.60187 -0.88783 1.08158
rclavicle 1.28965e-014 -3.97569e-016
rhumerus -24.4161 1.48309 -85.5144
rradius 55.1637
rwrist -4.71594
rhand 176.835 -71.1375
rfingers 7.12502
rthumb -157.445 -42.4351
lclavicle 1.28965e-014 -3.97569e-016
lhumerus -52.5176 21.9957 67.2189
lradius 9.79106
lwrist -28.452
lhand -21.2584 -15.7946
lfingers 7.12502
lthumb 5.12484 14.1235
rfemur -5.1675 -3.06352 28.4941
rtibia 26.571
rfoot -14.169 22.6298
rtoes 12.6132
lfemur -36.7596 5.7829 -16.9166
ltibia 34.727
lfoot -17.4054 7.28143
ltoes -15.4843
148
root 7.76727 16.3658 2.99957 6.49615 -6.87408 -4.02759
lowerback 0.892356 3.56961 5.85812
upperback -3.08528 4.96432 1.20556
thorax -3.30332 2.32969 -2.19036
lowerneck -7.84855 -1.25571 -2.00393
upperneck 14.1428 -1.80369 2.51863
head 5.59725 -0.805273 0.990811
rclavicle 1.29944e-014 2.70347e-014
rhumerus -23.1194 2.4208 -85.598
rradius 56.437
rwrist -5.76907
rhand 176.514 -71.6651
rfingers 7.12502
rthumb -157.753 -42.9256
lclavicle 1.29944e-014 2.70347e-014
lhumerus -54.0141 21.8678 66.4544
lradius 9.51449
lwrist -28.3881
lhand -20.6081 -15.632
lfingers 7.12502
lthumb 5.75276 14.2699
rfemur -3.78458 -3.5382 28.0967
rtibia 25.1029
rfoot -13.3291 23.513
rtoes 12.1813
lfemur -36.8808 5.05127 -16.3821
ltibia 31.2776
lfoot -17.6356 8.02247
ltoes -15.5595
